<mxfile host="app.diagrams.net" agent="Mozilla/5.0 (Windows NT 10.0; Win64; x64) AppleWebKit/537.36 (KHTML, like Gecko) Chrome/134.0.0.0 Safari/537.36" version="26.2.7">
  <diagram name="第 1 页" id="_MVxPaWDY9nUTC5SlAOA">
    <mxGraphModel dx="1428" dy="743" grid="1" gridSize="10" guides="1" tooltips="1" connect="1" arrows="1" fold="1" page="1" pageScale="1" pageWidth="827" pageHeight="1169" math="0" shadow="0">
      <root>
        <mxCell id="0" />
        <mxCell id="1" parent="0" />
        <mxCell id="iLnh9LYtmCxks-QTeESe-197" value="" style="group" vertex="1" connectable="0" parent="1">
          <mxGeometry x="40" y="400" width="80" height="80" as="geometry" />
        </mxCell>
        <mxCell id="3N5nppbNkiOyzgR5uvMz-2" value="" style="rounded=0;whiteSpace=wrap;html=1;" parent="iLnh9LYtmCxks-QTeESe-197" vertex="1">
          <mxGeometry width="80" height="80" as="geometry" />
        </mxCell>
        <mxCell id="iLnh9LYtmCxks-QTeESe-1" value="&lt;font style=&quot;font-size: 24px;&quot;&gt;9&lt;/font&gt;" style="text;html=1;align=center;verticalAlign=middle;whiteSpace=wrap;rounded=0;" vertex="1" parent="iLnh9LYtmCxks-QTeESe-197">
          <mxGeometry x="17.5" y="25" width="45" height="30" as="geometry" />
        </mxCell>
        <mxCell id="iLnh9LYtmCxks-QTeESe-3" value="&lt;font style=&quot;font-size: 14px;&quot;&gt;[0]&lt;/font&gt;" style="text;html=1;align=center;verticalAlign=middle;whiteSpace=wrap;rounded=0;" vertex="1" parent="iLnh9LYtmCxks-QTeESe-197">
          <mxGeometry x="30" y="60" width="50" height="20" as="geometry" />
        </mxCell>
        <mxCell id="iLnh9LYtmCxks-QTeESe-198" value="" style="group" vertex="1" connectable="0" parent="1">
          <mxGeometry x="137" y="400" width="80" height="80" as="geometry" />
        </mxCell>
        <mxCell id="iLnh9LYtmCxks-QTeESe-199" value="" style="rounded=0;whiteSpace=wrap;html=1;" vertex="1" parent="iLnh9LYtmCxks-QTeESe-198">
          <mxGeometry width="80" height="80" as="geometry" />
        </mxCell>
        <mxCell id="iLnh9LYtmCxks-QTeESe-200" value="&lt;font style=&quot;font-size: 24px;&quot;&gt;27&lt;/font&gt;" style="text;html=1;align=center;verticalAlign=middle;whiteSpace=wrap;rounded=0;" vertex="1" parent="iLnh9LYtmCxks-QTeESe-198">
          <mxGeometry x="17.5" y="25" width="45" height="30" as="geometry" />
        </mxCell>
        <mxCell id="iLnh9LYtmCxks-QTeESe-201" value="&lt;font style=&quot;font-size: 14px;&quot;&gt;[1]&lt;/font&gt;" style="text;html=1;align=center;verticalAlign=middle;whiteSpace=wrap;rounded=0;" vertex="1" parent="iLnh9LYtmCxks-QTeESe-198">
          <mxGeometry x="30" y="60" width="50" height="20" as="geometry" />
        </mxCell>
        <mxCell id="iLnh9LYtmCxks-QTeESe-202" value="" style="group" vertex="1" connectable="0" parent="1">
          <mxGeometry x="234" y="400" width="80" height="80" as="geometry" />
        </mxCell>
        <mxCell id="iLnh9LYtmCxks-QTeESe-203" value="" style="rounded=0;whiteSpace=wrap;html=1;" vertex="1" parent="iLnh9LYtmCxks-QTeESe-202">
          <mxGeometry width="80" height="80" as="geometry" />
        </mxCell>
        <mxCell id="iLnh9LYtmCxks-QTeESe-204" value="&lt;font style=&quot;font-size: 24px;&quot;&gt;12&lt;/font&gt;" style="text;html=1;align=center;verticalAlign=middle;whiteSpace=wrap;rounded=0;" vertex="1" parent="iLnh9LYtmCxks-QTeESe-202">
          <mxGeometry x="17.5" y="25" width="45" height="30" as="geometry" />
        </mxCell>
        <mxCell id="iLnh9LYtmCxks-QTeESe-205" value="&lt;font style=&quot;font-size: 14px;&quot;&gt;[2]&lt;/font&gt;" style="text;html=1;align=center;verticalAlign=middle;whiteSpace=wrap;rounded=0;" vertex="1" parent="iLnh9LYtmCxks-QTeESe-202">
          <mxGeometry x="30" y="60" width="50" height="20" as="geometry" />
        </mxCell>
        <mxCell id="iLnh9LYtmCxks-QTeESe-206" value="" style="group" vertex="1" connectable="0" parent="1">
          <mxGeometry x="331" y="400" width="80" height="80" as="geometry" />
        </mxCell>
        <mxCell id="iLnh9LYtmCxks-QTeESe-207" value="" style="rounded=0;whiteSpace=wrap;html=1;" vertex="1" parent="iLnh9LYtmCxks-QTeESe-206">
          <mxGeometry width="80" height="80" as="geometry" />
        </mxCell>
        <mxCell id="iLnh9LYtmCxks-QTeESe-208" value="&lt;font style=&quot;font-size: 24px;&quot;&gt;5&lt;/font&gt;" style="text;html=1;align=center;verticalAlign=middle;whiteSpace=wrap;rounded=0;" vertex="1" parent="iLnh9LYtmCxks-QTeESe-206">
          <mxGeometry x="17.5" y="25" width="45" height="30" as="geometry" />
        </mxCell>
        <mxCell id="iLnh9LYtmCxks-QTeESe-209" value="&lt;font style=&quot;font-size: 14px;&quot;&gt;[3]&lt;/font&gt;" style="text;html=1;align=center;verticalAlign=middle;whiteSpace=wrap;rounded=0;" vertex="1" parent="iLnh9LYtmCxks-QTeESe-206">
          <mxGeometry x="30" y="60" width="50" height="20" as="geometry" />
        </mxCell>
        <mxCell id="iLnh9LYtmCxks-QTeESe-210" value="" style="group" vertex="1" connectable="0" parent="1">
          <mxGeometry x="429" y="400" width="80" height="80" as="geometry" />
        </mxCell>
        <mxCell id="iLnh9LYtmCxks-QTeESe-211" value="" style="rounded=0;whiteSpace=wrap;html=1;" vertex="1" parent="iLnh9LYtmCxks-QTeESe-210">
          <mxGeometry width="80" height="80" as="geometry" />
        </mxCell>
        <mxCell id="iLnh9LYtmCxks-QTeESe-212" value="&lt;span style=&quot;font-size: 24px;&quot;&gt;14&lt;/span&gt;" style="text;html=1;align=center;verticalAlign=middle;whiteSpace=wrap;rounded=0;" vertex="1" parent="iLnh9LYtmCxks-QTeESe-210">
          <mxGeometry x="17.5" y="25" width="45" height="30" as="geometry" />
        </mxCell>
        <mxCell id="iLnh9LYtmCxks-QTeESe-213" value="&lt;font style=&quot;font-size: 14px;&quot;&gt;[4]&lt;/font&gt;" style="text;html=1;align=center;verticalAlign=middle;whiteSpace=wrap;rounded=0;" vertex="1" parent="iLnh9LYtmCxks-QTeESe-210">
          <mxGeometry x="30" y="60" width="50" height="20" as="geometry" />
        </mxCell>
        <mxCell id="iLnh9LYtmCxks-QTeESe-214" value="" style="group" vertex="1" connectable="0" parent="1">
          <mxGeometry x="526" y="400" width="80" height="80" as="geometry" />
        </mxCell>
        <mxCell id="iLnh9LYtmCxks-QTeESe-215" value="" style="rounded=0;whiteSpace=wrap;html=1;" vertex="1" parent="iLnh9LYtmCxks-QTeESe-214">
          <mxGeometry width="80" height="80" as="geometry" />
        </mxCell>
        <mxCell id="iLnh9LYtmCxks-QTeESe-216" value="&lt;font style=&quot;font-size: 24px;&quot;&gt;41&lt;/font&gt;" style="text;html=1;align=center;verticalAlign=middle;whiteSpace=wrap;rounded=0;" vertex="1" parent="iLnh9LYtmCxks-QTeESe-214">
          <mxGeometry x="17.5" y="25" width="45" height="30" as="geometry" />
        </mxCell>
        <mxCell id="iLnh9LYtmCxks-QTeESe-217" value="&lt;font style=&quot;font-size: 14px;&quot;&gt;[5]&lt;/font&gt;" style="text;html=1;align=center;verticalAlign=middle;whiteSpace=wrap;rounded=0;" vertex="1" parent="iLnh9LYtmCxks-QTeESe-214">
          <mxGeometry x="30" y="60" width="50" height="20" as="geometry" />
        </mxCell>
        <mxCell id="iLnh9LYtmCxks-QTeESe-218" value="" style="group" vertex="1" connectable="0" parent="1">
          <mxGeometry x="623" y="400" width="80" height="80" as="geometry" />
        </mxCell>
        <mxCell id="iLnh9LYtmCxks-QTeESe-219" value="" style="rounded=0;whiteSpace=wrap;html=1;" vertex="1" parent="iLnh9LYtmCxks-QTeESe-218">
          <mxGeometry width="80" height="80" as="geometry" />
        </mxCell>
        <mxCell id="iLnh9LYtmCxks-QTeESe-220" value="&lt;span style=&quot;font-size: 24px;&quot;&gt;42&lt;/span&gt;" style="text;html=1;align=center;verticalAlign=middle;whiteSpace=wrap;rounded=0;" vertex="1" parent="iLnh9LYtmCxks-QTeESe-218">
          <mxGeometry x="17.5" y="25" width="45" height="30" as="geometry" />
        </mxCell>
        <mxCell id="iLnh9LYtmCxks-QTeESe-221" value="&lt;font style=&quot;font-size: 14px;&quot;&gt;[6]&lt;/font&gt;" style="text;html=1;align=center;verticalAlign=middle;whiteSpace=wrap;rounded=0;" vertex="1" parent="iLnh9LYtmCxks-QTeESe-218">
          <mxGeometry x="30" y="60" width="50" height="20" as="geometry" />
        </mxCell>
        <mxCell id="iLnh9LYtmCxks-QTeESe-222" value="" style="group" vertex="1" connectable="0" parent="1">
          <mxGeometry x="720" y="400" width="80" height="80" as="geometry" />
        </mxCell>
        <mxCell id="iLnh9LYtmCxks-QTeESe-223" value="" style="rounded=0;whiteSpace=wrap;html=1;" vertex="1" parent="iLnh9LYtmCxks-QTeESe-222">
          <mxGeometry width="80" height="80" as="geometry" />
        </mxCell>
        <mxCell id="iLnh9LYtmCxks-QTeESe-224" value="&lt;font style=&quot;font-size: 24px;&quot;&gt;75&lt;/font&gt;" style="text;html=1;align=center;verticalAlign=middle;whiteSpace=wrap;rounded=0;" vertex="1" parent="iLnh9LYtmCxks-QTeESe-222">
          <mxGeometry x="17.5" y="25" width="45" height="30" as="geometry" />
        </mxCell>
        <mxCell id="iLnh9LYtmCxks-QTeESe-225" value="&lt;font style=&quot;font-size: 14px;&quot;&gt;[7]&lt;/font&gt;" style="text;html=1;align=center;verticalAlign=middle;whiteSpace=wrap;rounded=0;" vertex="1" parent="iLnh9LYtmCxks-QTeESe-222">
          <mxGeometry x="30" y="60" width="50" height="20" as="geometry" />
        </mxCell>
        <mxCell id="iLnh9LYtmCxks-QTeESe-226" value="" style="group" vertex="1" connectable="0" parent="1">
          <mxGeometry x="40" y="290" width="177" height="80" as="geometry" />
        </mxCell>
        <mxCell id="iLnh9LYtmCxks-QTeESe-227" value="" style="rounded=0;whiteSpace=wrap;html=1;" vertex="1" parent="iLnh9LYtmCxks-QTeESe-226">
          <mxGeometry width="177" height="80" as="geometry" />
        </mxCell>
        <mxCell id="iLnh9LYtmCxks-QTeESe-228" value="&lt;font style=&quot;font-size: 24px;&quot;&gt;36&lt;/font&gt;" style="text;html=1;align=center;verticalAlign=middle;whiteSpace=wrap;rounded=0;" vertex="1" parent="iLnh9LYtmCxks-QTeESe-226">
          <mxGeometry x="38.71875" y="25" width="99.56250000000001" height="30" as="geometry" />
        </mxCell>
        <mxCell id="iLnh9LYtmCxks-QTeESe-229" value="&lt;font style=&quot;font-size: 14px;&quot;&gt;[0, 2)&lt;/font&gt;" style="text;html=1;align=center;verticalAlign=middle;whiteSpace=wrap;rounded=0;" vertex="1" parent="iLnh9LYtmCxks-QTeESe-226">
          <mxGeometry x="110" y="60" width="67" height="20" as="geometry" />
        </mxCell>
        <mxCell id="iLnh9LYtmCxks-QTeESe-230" value="" style="group" vertex="1" connectable="0" parent="1">
          <mxGeometry x="237" y="290" width="177" height="80" as="geometry" />
        </mxCell>
        <mxCell id="iLnh9LYtmCxks-QTeESe-231" value="" style="rounded=0;whiteSpace=wrap;html=1;" vertex="1" parent="iLnh9LYtmCxks-QTeESe-230">
          <mxGeometry width="177" height="80" as="geometry" />
        </mxCell>
        <mxCell id="iLnh9LYtmCxks-QTeESe-232" value="&lt;font style=&quot;font-size: 24px;&quot;&gt;17&lt;/font&gt;" style="text;html=1;align=center;verticalAlign=middle;whiteSpace=wrap;rounded=0;" vertex="1" parent="iLnh9LYtmCxks-QTeESe-230">
          <mxGeometry x="38.71875" y="25" width="99.56250000000001" height="30" as="geometry" />
        </mxCell>
        <mxCell id="iLnh9LYtmCxks-QTeESe-233" value="&lt;font style=&quot;font-size: 14px;&quot;&gt;[2, 4)&lt;/font&gt;" style="text;html=1;align=center;verticalAlign=middle;whiteSpace=wrap;rounded=0;" vertex="1" parent="iLnh9LYtmCxks-QTeESe-230">
          <mxGeometry x="110" y="60" width="67" height="20" as="geometry" />
        </mxCell>
        <mxCell id="iLnh9LYtmCxks-QTeESe-234" value="" style="group" vertex="1" connectable="0" parent="1">
          <mxGeometry x="429" y="290" width="177" height="80" as="geometry" />
        </mxCell>
        <mxCell id="iLnh9LYtmCxks-QTeESe-235" value="" style="rounded=0;whiteSpace=wrap;html=1;" vertex="1" parent="iLnh9LYtmCxks-QTeESe-234">
          <mxGeometry width="177" height="80" as="geometry" />
        </mxCell>
        <mxCell id="iLnh9LYtmCxks-QTeESe-236" value="&lt;font style=&quot;font-size: 24px;&quot;&gt;55&lt;/font&gt;" style="text;html=1;align=center;verticalAlign=middle;whiteSpace=wrap;rounded=0;" vertex="1" parent="iLnh9LYtmCxks-QTeESe-234">
          <mxGeometry x="38.71875" y="25" width="99.56250000000001" height="30" as="geometry" />
        </mxCell>
        <mxCell id="iLnh9LYtmCxks-QTeESe-237" value="&lt;font style=&quot;font-size: 14px;&quot;&gt;[4, 6)&lt;/font&gt;" style="text;html=1;align=center;verticalAlign=middle;whiteSpace=wrap;rounded=0;" vertex="1" parent="iLnh9LYtmCxks-QTeESe-234">
          <mxGeometry x="110" y="60" width="67" height="20" as="geometry" />
        </mxCell>
        <mxCell id="iLnh9LYtmCxks-QTeESe-243" value="" style="group" vertex="1" connectable="0" parent="1">
          <mxGeometry x="623" y="290" width="177" height="80" as="geometry" />
        </mxCell>
        <mxCell id="iLnh9LYtmCxks-QTeESe-244" value="" style="rounded=0;whiteSpace=wrap;html=1;" vertex="1" parent="iLnh9LYtmCxks-QTeESe-243">
          <mxGeometry width="177" height="80" as="geometry" />
        </mxCell>
        <mxCell id="iLnh9LYtmCxks-QTeESe-245" value="&lt;font style=&quot;font-size: 24px;&quot;&gt;117&lt;/font&gt;" style="text;html=1;align=center;verticalAlign=middle;whiteSpace=wrap;rounded=0;" vertex="1" parent="iLnh9LYtmCxks-QTeESe-243">
          <mxGeometry x="38.71875" y="25" width="99.56250000000001" height="30" as="geometry" />
        </mxCell>
        <mxCell id="iLnh9LYtmCxks-QTeESe-246" value="&lt;font style=&quot;font-size: 14px;&quot;&gt;[6, 8)&lt;/font&gt;" style="text;html=1;align=center;verticalAlign=middle;whiteSpace=wrap;rounded=0;" vertex="1" parent="iLnh9LYtmCxks-QTeESe-243">
          <mxGeometry x="110" y="60" width="67" height="20" as="geometry" />
        </mxCell>
        <mxCell id="iLnh9LYtmCxks-QTeESe-247" value="" style="group" vertex="1" connectable="0" parent="1">
          <mxGeometry x="40" y="180" width="374" height="80" as="geometry" />
        </mxCell>
        <mxCell id="iLnh9LYtmCxks-QTeESe-248" value="" style="rounded=0;whiteSpace=wrap;html=1;" vertex="1" parent="iLnh9LYtmCxks-QTeESe-247">
          <mxGeometry width="374.00000000000006" height="80" as="geometry" />
        </mxCell>
        <mxCell id="iLnh9LYtmCxks-QTeESe-249" value="&lt;span style=&quot;font-size: 24px;&quot;&gt;53&lt;/span&gt;" style="text;html=1;align=center;verticalAlign=middle;whiteSpace=wrap;rounded=0;" vertex="1" parent="iLnh9LYtmCxks-QTeESe-247">
          <mxGeometry x="81.8125" y="25" width="210.37500000000006" height="30" as="geometry" />
        </mxCell>
        <mxCell id="iLnh9LYtmCxks-QTeESe-250" value="&lt;font style=&quot;font-size: 14px;&quot;&gt;[0, 4)&lt;/font&gt;" style="text;html=1;align=center;verticalAlign=middle;whiteSpace=wrap;rounded=0;" vertex="1" parent="iLnh9LYtmCxks-QTeESe-247">
          <mxGeometry x="232.42937853107344" y="60" width="141.57062146892656" height="20" as="geometry" />
        </mxCell>
        <mxCell id="iLnh9LYtmCxks-QTeESe-251" value="" style="group" vertex="1" connectable="0" parent="1">
          <mxGeometry x="430" y="180" width="374" height="80" as="geometry" />
        </mxCell>
        <mxCell id="iLnh9LYtmCxks-QTeESe-252" value="" style="rounded=0;whiteSpace=wrap;html=1;" vertex="1" parent="iLnh9LYtmCxks-QTeESe-251">
          <mxGeometry width="374.00000000000006" height="80" as="geometry" />
        </mxCell>
        <mxCell id="iLnh9LYtmCxks-QTeESe-253" value="&lt;font style=&quot;font-size: 24px;&quot;&gt;672&lt;/font&gt;" style="text;html=1;align=center;verticalAlign=middle;whiteSpace=wrap;rounded=0;" vertex="1" parent="iLnh9LYtmCxks-QTeESe-251">
          <mxGeometry x="81.8125" y="25" width="210.37500000000006" height="30" as="geometry" />
        </mxCell>
        <mxCell id="iLnh9LYtmCxks-QTeESe-254" value="&lt;font style=&quot;font-size: 14px;&quot;&gt;[4, 8)&lt;/font&gt;" style="text;html=1;align=center;verticalAlign=middle;whiteSpace=wrap;rounded=0;" vertex="1" parent="iLnh9LYtmCxks-QTeESe-251">
          <mxGeometry x="232.42937853107344" y="60" width="141.57062146892656" height="20" as="geometry" />
        </mxCell>
        <mxCell id="iLnh9LYtmCxks-QTeESe-255" value="" style="group" vertex="1" connectable="0" parent="1">
          <mxGeometry x="40" y="60" width="760" height="80" as="geometry" />
        </mxCell>
        <mxCell id="iLnh9LYtmCxks-QTeESe-256" value="" style="rounded=0;whiteSpace=wrap;html=1;" vertex="1" parent="iLnh9LYtmCxks-QTeESe-255">
          <mxGeometry width="760.0000000000001" height="80" as="geometry" />
        </mxCell>
        <mxCell id="iLnh9LYtmCxks-QTeESe-257" value="&lt;span style=&quot;font-size: 24px;&quot;&gt;725&lt;/span&gt;" style="text;html=1;align=center;verticalAlign=middle;whiteSpace=wrap;rounded=0;" vertex="1" parent="iLnh9LYtmCxks-QTeESe-255">
          <mxGeometry x="166.25" y="25" width="427.50000000000017" height="30" as="geometry" />
        </mxCell>
        <mxCell id="iLnh9LYtmCxks-QTeESe-258" value="&lt;font style=&quot;font-size: 14px;&quot;&gt;[0, 8)&lt;/font&gt;" style="text;html=1;align=center;verticalAlign=middle;whiteSpace=wrap;rounded=0;" vertex="1" parent="iLnh9LYtmCxks-QTeESe-255">
          <mxGeometry x="472.316384180791" y="60" width="287.6836158192091" height="20" as="geometry" />
        </mxCell>
        <mxCell id="iLnh9LYtmCxks-QTeESe-259" value="" style="endArrow=none;html=1;rounded=0;" edge="1" parent="1" source="iLnh9LYtmCxks-QTeESe-256" target="iLnh9LYtmCxks-QTeESe-252">
          <mxGeometry width="50" height="50" relative="1" as="geometry">
            <mxPoint x="479.99727272727273" y="140" as="sourcePoint" />
            <mxPoint x="621.27" y="70" as="targetPoint" />
          </mxGeometry>
        </mxCell>
        <mxCell id="iLnh9LYtmCxks-QTeESe-260" value="" style="endArrow=none;html=1;rounded=0;" edge="1" parent="1" source="iLnh9LYtmCxks-QTeESe-256" target="iLnh9LYtmCxks-QTeESe-248">
          <mxGeometry width="50" height="50" relative="1" as="geometry">
            <mxPoint x="496" y="150" as="sourcePoint" />
            <mxPoint x="561" y="190" as="targetPoint" />
          </mxGeometry>
        </mxCell>
        <mxCell id="iLnh9LYtmCxks-QTeESe-261" value="" style="endArrow=none;html=1;rounded=0;" edge="1" parent="1" source="iLnh9LYtmCxks-QTeESe-227" target="3N5nppbNkiOyzgR5uvMz-2">
          <mxGeometry width="50" height="50" relative="1" as="geometry">
            <mxPoint x="366" y="150" as="sourcePoint" />
            <mxPoint x="301" y="190" as="targetPoint" />
          </mxGeometry>
        </mxCell>
        <mxCell id="iLnh9LYtmCxks-QTeESe-262" value="" style="endArrow=none;html=1;rounded=0;" edge="1" parent="1" source="iLnh9LYtmCxks-QTeESe-227" target="iLnh9LYtmCxks-QTeESe-199">
          <mxGeometry width="50" height="50" relative="1" as="geometry">
            <mxPoint x="121" y="380" as="sourcePoint" />
            <mxPoint x="108" y="410" as="targetPoint" />
          </mxGeometry>
        </mxCell>
        <mxCell id="iLnh9LYtmCxks-QTeESe-263" value="" style="endArrow=none;html=1;rounded=0;" edge="1" parent="1" source="iLnh9LYtmCxks-QTeESe-231" target="iLnh9LYtmCxks-QTeESe-203">
          <mxGeometry width="50" height="50" relative="1" as="geometry">
            <mxPoint x="156" y="380" as="sourcePoint" />
            <mxPoint x="169" y="410" as="targetPoint" />
          </mxGeometry>
        </mxCell>
        <mxCell id="iLnh9LYtmCxks-QTeESe-264" value="" style="endArrow=none;html=1;rounded=0;" edge="1" parent="1" source="iLnh9LYtmCxks-QTeESe-231" target="iLnh9LYtmCxks-QTeESe-207">
          <mxGeometry width="50" height="50" relative="1" as="geometry">
            <mxPoint x="317" y="380" as="sourcePoint" />
            <mxPoint x="303" y="410" as="targetPoint" />
          </mxGeometry>
        </mxCell>
        <mxCell id="iLnh9LYtmCxks-QTeESe-265" value="" style="endArrow=none;html=1;rounded=0;" edge="1" parent="1" source="iLnh9LYtmCxks-QTeESe-235" target="iLnh9LYtmCxks-QTeESe-211">
          <mxGeometry width="50" height="50" relative="1" as="geometry">
            <mxPoint x="352" y="380" as="sourcePoint" />
            <mxPoint x="364" y="410" as="targetPoint" />
          </mxGeometry>
        </mxCell>
        <mxCell id="iLnh9LYtmCxks-QTeESe-266" value="" style="endArrow=none;html=1;rounded=0;" edge="1" parent="1" source="iLnh9LYtmCxks-QTeESe-235" target="iLnh9LYtmCxks-QTeESe-215">
          <mxGeometry width="50" height="50" relative="1" as="geometry">
            <mxPoint x="510" y="380" as="sourcePoint" />
            <mxPoint x="497" y="410" as="targetPoint" />
          </mxGeometry>
        </mxCell>
        <mxCell id="iLnh9LYtmCxks-QTeESe-267" value="" style="endArrow=none;html=1;rounded=0;" edge="1" parent="1" source="iLnh9LYtmCxks-QTeESe-244" target="iLnh9LYtmCxks-QTeESe-219">
          <mxGeometry width="50" height="50" relative="1" as="geometry">
            <mxPoint x="545" y="380" as="sourcePoint" />
            <mxPoint x="558" y="410" as="targetPoint" />
          </mxGeometry>
        </mxCell>
        <mxCell id="iLnh9LYtmCxks-QTeESe-268" value="" style="endArrow=none;html=1;rounded=0;" edge="1" parent="1" source="iLnh9LYtmCxks-QTeESe-244" target="iLnh9LYtmCxks-QTeESe-223">
          <mxGeometry width="50" height="50" relative="1" as="geometry">
            <mxPoint x="704" y="380" as="sourcePoint" />
            <mxPoint x="691" y="410" as="targetPoint" />
          </mxGeometry>
        </mxCell>
        <mxCell id="iLnh9LYtmCxks-QTeESe-269" value="" style="endArrow=none;html=1;rounded=0;" edge="1" parent="1" source="iLnh9LYtmCxks-QTeESe-252" target="iLnh9LYtmCxks-QTeESe-244">
          <mxGeometry width="50" height="50" relative="1" as="geometry">
            <mxPoint x="739" y="380" as="sourcePoint" />
            <mxPoint x="752" y="410" as="targetPoint" />
          </mxGeometry>
        </mxCell>
        <mxCell id="iLnh9LYtmCxks-QTeESe-270" value="" style="endArrow=none;html=1;rounded=0;" edge="1" parent="1" source="iLnh9LYtmCxks-QTeESe-252" target="iLnh9LYtmCxks-QTeESe-235">
          <mxGeometry width="50" height="50" relative="1" as="geometry">
            <mxPoint x="661" y="270" as="sourcePoint" />
            <mxPoint x="687" y="300" as="targetPoint" />
          </mxGeometry>
        </mxCell>
        <mxCell id="iLnh9LYtmCxks-QTeESe-271" value="" style="endArrow=none;html=1;rounded=0;" edge="1" parent="1" source="iLnh9LYtmCxks-QTeESe-248" target="iLnh9LYtmCxks-QTeESe-231">
          <mxGeometry width="50" height="50" relative="1" as="geometry">
            <mxPoint x="591" y="270" as="sourcePoint" />
            <mxPoint x="564" y="300" as="targetPoint" />
          </mxGeometry>
        </mxCell>
        <mxCell id="iLnh9LYtmCxks-QTeESe-272" value="" style="endArrow=none;html=1;rounded=0;" edge="1" parent="1" source="iLnh9LYtmCxks-QTeESe-248" target="iLnh9LYtmCxks-QTeESe-227">
          <mxGeometry width="50" height="50" relative="1" as="geometry">
            <mxPoint x="273" y="270" as="sourcePoint" />
            <mxPoint x="300" y="300" as="targetPoint" />
          </mxGeometry>
        </mxCell>
      </root>
    </mxGraphModel>
  </diagram>
</mxfile>
